<svg xmlns="http://www.w3.org/2000/svg" id="prefix__bed" width="19.819" height="13.396" viewBox="0 0 19.819 13.396">
    <g id="prefix__Group_264" data-name="Group 264">
        <path id="prefix__Path_1304" d="M17.89 65.793v-3.222a1.839 1.839 0 0 0-1.972-1.971H3.837a1.827 1.827 0 0 0-1.971 1.971v3.222A2.019 2.019 0 0 0 0 68v2.5a.76.76 0 0 0 .763.763h.254v1.971A.76.76 0 0 0 1.78 74h.72a.76.76 0 0 0 .763-.763v-1.996h13.29v1.992a.76.76 0 0 0 .763.763h.721a.76.76 0 0 0 .763-.763v-1.992h.254a.76.76 0 0 0 .763-.763V68a2.106 2.106 0 0 0-1.927-2.207zm-15.3-3.222h.042a1.084 1.084 0 0 1 1.208-1.208h12.078a1.084 1.084 0 0 1 1.208 1.208v3.2h-.572v-1.822a.76.76 0 0 0-.763-.763h-4.663a.76.76 0 0 0-.763.763v1.823h-.89v-1.823a.76.76 0 0 0-.763-.763H4.048a.76.76 0 0 0-.763.763v1.823h-.7zm13.205 1.378v1.823h-4.667v-1.823zm-7.037 0v1.823H4.091v-1.823zM2.48 73.233h-.721v-1.992h.721zm15.516 0h-.721v-1.992H18zm1-2.734H.742v-1.124h18.25zm0-1.886H.742V68A1.332 1.332 0 0 1 2.2 66.535h15.329A1.324 1.324 0 0 1 18.992 68z" data-name="Path 1304" transform="translate(0 -60.6)" style="fill:#fe8369"/>
    </g>
</svg>
