<svg xmlns="http://www.w3.org/2000/svg" width="23.468" height="23.502" viewBox="0 0 23.468 23.502">
    <defs>
        <style>
            .prefix__cls-1{fill:#fff}
        </style>
    </defs>
    <g id="prefix__phone" transform="translate(-.344)">
        <g id="prefix__Group_250" data-name="Group 250" transform="translate(.344)">
            <path id="prefix__Path_1301" d="M18.9 40.605a2.312 2.312 0 0 0-1.677-.769 2.39 2.39 0 0 0-1.7.764l-1.567 1.563c-.129-.069-.258-.134-.382-.2-.179-.089-.347-.174-.491-.263a17.036 17.036 0 0 1-4.082-3.72 10.051 10.051 0 0 1-1.339-2.113c.407-.372.784-.759 1.151-1.131.139-.139.278-.283.417-.422a2.276 2.276 0 0 0 0-3.433l-1.35-1.352c-.154-.154-.313-.313-.461-.471-.3-.308-.61-.625-.933-.923a2.348 2.348 0 0 0-1.662-.729 2.43 2.43 0 0 0-1.687.729l-.01.01-1.687 1.7a3.629 3.629 0 0 0-1.075 2.308A8.7 8.7 0 0 0 1 35.834a21.358 21.358 0 0 0 3.795 6.329 23.343 23.343 0 0 0 7.773 6.086 12.111 12.111 0 0 0 4.365 1.29c.1 0 .213.01.313.01a3.738 3.738 0 0 0 2.862-1.23c0-.01.015-.015.02-.025a11.277 11.277 0 0 1 .868-.9c.213-.2.432-.417.645-.64a2.475 2.475 0 0 0 .749-1.716 2.384 2.384 0 0 0-.764-1.7zm1.776 5.223c-.193.208-.392.4-.605.605a13.044 13.044 0 0 0-.957.992 2.391 2.391 0 0 1-1.865.789h-.228a10.759 10.759 0 0 1-3.869-1.161 22.034 22.034 0 0 1-7.321-5.734 20.138 20.138 0 0 1-3.571-5.952 7.083 7.083 0 0 1-.56-3.105 2.277 2.277 0 0 1 .685-1.473L4.08 29.1a1.128 1.128 0 0 1 .754-.352 1.061 1.061 0 0 1 .724.347l.015.015c.3.283.59.575.893.888.154.159.313.317.471.481l1.354 1.354a.947.947 0 0 1 0 1.538c-.144.144-.283.288-.427.427-.417.427-.813.823-1.245 1.21-.01.01-.02.015-.025.025a1.012 1.012 0 0 0-.258 1.126l.015.045a10.872 10.872 0 0 0 1.6 2.614 18.206 18.206 0 0 0 4.4 4.008 6.773 6.773 0 0 0 .61.332c.179.089.347.174.491.263.02.01.04.025.06.035a1.075 1.075 0 0 0 .491.124 1.061 1.061 0 0 0 .754-.342l1.7-1.7a1.122 1.122 0 0 1 .749-.372 1.01 1.01 0 0 1 .714.362l.01.01 2.733 2.733a.981.981 0 0 1 .014 1.558z" class="prefix__cls-1" data-name="Path 1301" transform="translate(-.344 -26.047)"/>
            <path id="prefix__Path_1302" d="M245.495 87.254a6.384 6.384 0 0 1 5.2 5.2.666.666 0 0 0 .66.556.886.886 0 0 0 .114-.01.67.67 0 0 0 .551-.774 7.719 7.719 0 0 0-6.29-6.29.673.673 0 0 0-.774.546.662.662 0 0 0 .539.772z" class="prefix__cls-1" data-name="Path 1302" transform="translate(-232.811 -81.663)"/>
            <path id="prefix__Path_1303" d="M259.91 10.368A12.711 12.711 0 0 0 249.553.01a.669.669 0 1 0-.218 1.319 11.353 11.353 0 0 1 9.256 9.256.666.666 0 0 0 .66.556.886.886 0 0 0 .114-.01.657.657 0 0 0 .545-.763z" class="prefix__cls-1" data-name="Path 1303" transform="translate(-236.452)"/>
        </g>
    </g>
</svg>
