<svg xmlns="http://www.w3.org/2000/svg" width="65.606" height="65.606" viewBox="0 0 65.606 65.606">
    <path id="prefix__target-2" d="M76.824 21.034a1.087 1.087 0 0 0-.808-.759l-6.67-1.507-1.508-6.668a1.088 1.088 0 0 0-1.831-.529l-7.671 7.673a31.039 31.039 0 1 0 10.539 10.537l7.675-7.675a1.089 1.089 0 0 0 .274-1.072zm-5.663 24.787a28.861 28.861 0 1 1-14.413-24.989l-3.523 3.523a1.079 1.079 0 0 0-.084.109 23.984 23.984 0 1 0 10.506 10.521 1.073 1.073 0 0 0 .114-.093l3.523-3.523A28.764 28.764 0 0 1 71.16 45.82zM61.064 34.8a21.744 21.744 0 1 1-7.753-7.761l1.146 5.077-1.1 1.1a16.809 16.809 0 1 0 1.543 1.543l1.1-1.1zM46.976 45.821a4.7 4.7 0 1 1-2.236-3.983l-3.214 3.214a1.088 1.088 0 1 0 1.539 1.539l3.214-3.214a4.644 4.644 0 0 1 .697 2.444zm-.669-5.55a6.885 6.885 0 1 0 1.539 1.539l5.508-5.51a14.622 14.622 0 1 1-1.539-1.539zm20.426-11.429l-4.085 4.084-.613-.138-.024-.006-5.451-1.227-1.374-6.084L66.153 14.5l1.223 5.414a1.089 1.089 0 0 0 .822.822l5.414 1.223z" transform="translate(-11.261 -11.25)" style="fill:#fe8369"/>
</svg>
